# xmcd
# 
# Track frame offsets:
#     150
#     24225
#     46612
#     72075
#     93017
#     115650
#     134925
#     156562
#     184217
#     216825
#     247950
# 
# Disc length: 3591
# 
# Revision: 7
# Processed by: cddbd v1.5.2PL0 Copyright (c) Steve Scherf et al.
# Submitted via: fre:ac v1.1beta1pre5
# 
DISCID=920e050b
DTITLE=THE SQUARE - THE BEST OF THE SQUARE
DYEAR=1983
DGENRE=Fusion
TTITLE0=IT'S MAGIC
TTITLE1=TOO YOUNG TO LOVE
TTITLE2=MAKE ME A STAR
TTITLE3=BANANA
TTITLE4=MIDNIGHT LOVER
TTITLE5=CHANGE YOUR MIND
TTITLE6=TOMORROW'S AFFAIR
TTITLE7=A FEEL DEEP INSIDE
TTITLE8=ME.COCO'S ONE
TTITLE9=TEXAS KID
TTITLE10=MEMORIES OF ALICE
EXTD=1983.11.12
EXTT0=
EXTT1=
EXTT2=
EXTT3=
EXTT4=
EXTT5=
EXTT6=
EXTT7=
EXTT8=
EXTT9=
EXTT10=
PLAYORDER=
